<svg width="1428" height="527" fill="none" xmlns="http://www.w3.org/2000/svg"><g clip-path="url(#clip0_3:1505)" stroke="#FFF4DB" stroke-width="2"><path d="M720 526.487c396.87 0 718.6-117.743 718.6-262.987C1438.6 118.256 1116.87.513 720 .513 323.129.513 1.4 118.256 1.4 263.5 1.4 408.744 323.13 526.487 720 526.487z"/><path d="M720 493.678c347.36 0 628.95-103.054 628.95-230.178S1067.36 33.322 720 33.322c-347.359 0-628.95 103.054-628.95 230.178S372.642 493.678 720 493.678z"/><path d="M720 460.868c297.85 0 539.3-88.365 539.3-197.368 0-109.004-241.45-197.37-539.3-197.37-297.847 0-539.3 88.366-539.3 197.37 0 109.003 241.453 197.368 539.3 197.368z"/><path d="M720 428.059c248.335 0 449.65-73.676 449.65-164.559 0-90.884-201.315-164.56-449.65-164.56-248.335 0-449.65 73.676-449.65 164.56 0 90.883 201.315 164.559 449.65 164.559z"/><path d="M720 395.25c198.823 0 360-58.986 360-131.75 0-72.764-161.177-131.75-360-131.75S360 190.736 360 263.5c0 72.764 161.177 131.75 360 131.75z"/><path d="M720 362.441c149.31 0 270.35-44.297 270.35-98.941 0-54.643-121.04-98.94-270.35-98.94s-270.35 44.297-270.35 98.94c0 54.644 121.04 98.941 270.35 98.941z"/><path d="M720 329.632c99.798 0 180.7-29.608 180.7-66.132 0-36.523-80.902-66.131-180.7-66.131-99.798 0-180.7 29.608-180.7 66.131 0 36.524 80.902 66.132 180.7 66.132z"/><path d="M720 296.822c50.286 0 91.051-14.919 91.051-33.322 0-18.404-40.765-33.322-91.051-33.322s-91.051 14.918-91.051 33.322c0 18.403 40.765 33.322 91.051 33.322z"/></g><defs><clipPath id="clip0_3:1505"><path fill="#fff" d="M0 0h1440v527H0z"/></clipPath></defs></svg>