<svg width="415" height="52" fill="none" xmlns="http://www.w3.org/2000/svg"><path fill-rule="evenodd" clip-rule="evenodd" d="M204.228.374c-.114.187-2.166.561-4.561.832-3.808.416-8.972 2.08-11.344 3.66-.41.27-1.299.604-1.995.75-2.234.436-4.218 1.476-4.56 2.391-.228.583-.582.52-1.083-.187-.422-.582-.867-.707-1.026-.27-.24.686-4.96 2.308-5.861 2.017-.182-.041-.57.416-.866 1.04-.342.687-1.277.999-2.508.79-1.061-.207-2.087.063-2.258.541-.182.5-.855.895-1.516.895-.65 0-1.323.395-1.494.873-.171.479-.49.687-.684.458-.216-.208-2.166.375-4.332 1.29-2.166.936-4.606 1.872-5.438 2.142-.821.229-2.965 1.02-4.743 1.706-1.779.707-4.025 1.497-4.983 1.768-.957.25-3.534 1.123-5.723 1.913-2.314.853-6.043 1.456-8.847 1.415-2.794-.021-4.948.312-5.062.81-.137.52-.377.48-.627-.145-.263-.624-1.939-.977-4.401-.956-3.512.02-10.831-1.83-17.683-4.514-1.232-.479-2.737-.998-3.34-1.165-3.512-.998-9.452-3.411-9.931-4.035-.787-.628-1.628-.994-2.486-1.082-1.06-.166-3.283-.707-4.925-1.165-3.808-1.081-13.077-1.206-13.453-.166-.148.416-.639.54-1.095.25-.604-.416-.695-.23-.387.665.342.978.285 1.02-.285.23-.548-.729-1.813-.666-5.2.27a26.4 26.4 0 00-5.483 1.996c-.547.416-2.007.978-3.238 1.27-3.675 1.135-7.285 2.882-10.785 5.22-.867.666-1.813 1.186-2.098 1.186-.285 0-2.235 1.352-4.333 2.995-2.12 1.643-4.218 2.974-4.708 2.974-.468 0-1.437.77-2.132 1.706-.684.936-1.585 1.705-1.973 1.705-.387 0-.878.291-1.083.645-.205.354-.524.666-.707.687-1.824.228-4.355 3.182-3.876 4.513.148.416-.228.582-.832.374-1.255-.415-2.475.375-6.134 3.953-1.348 1.393-2.846 2.23-4.39 2.454-1.026 0-2.234.582-2.69 1.29-.912 1.393-4.299 2.225-4.891 1.206-.194-.333-.764-.624-1.266-.624-1.197 0-1.22 3.12-.046 4.118 1.597 1.373 5.975 1.186 7.309-.29.41-.476.87-.795 1.35-.938.48-.143.97-.107 1.443.105 1.46.562 5.108-2.038 15.597-11.149.637-.598 1.322-1.012 2.029-1.227.342 0 1.767-.957 3.192-2.121.983-.898 2.01-1.622 3.067-2.164.479 0 1.482-.665 6.385-4.326 1.448-1.082 3.021-2.06 3.489-2.163 1.71-.416 4.389-1.83 6.339-3.35 1.094-.852 2.325-1.622 2.736-1.705.41-.083.866-.208 1.003-.332.137-.084 1.254-.313 2.486-.458 1.23-.166 3.477-.895 4.982-1.622 4.993-2.413 18.481-3.037 21.48-.978.433.291.991.457 1.242.374.24-.104.787.042 1.197.312.41.292 1.528.687 2.486.916 3.078.707 5.21 1.56 6.18 2.454.524.478 1.971 1.04 3.237 1.269 1.254.208 2.554.79 2.885 1.248.319.437.877.707 1.242.582.365-.145 1.665.208 2.896.728 6.567 2.912 19.587 4.971 24.045 3.827 1.71-.416 2.862-.416 2.862.042 0 .437.707.52 1.619.166.889-.353 1.961-.603 2.371-.561.753.083 6.841-1.623 11.948-3.328a270.867 270.867 0 0027.751-11.378c1.197-.416 1.527-.936 1.322-2.018-.205-1.123-.159-1.185.228-.25.354.854 1.015 1.02 2.417.563l3.17-1.02c.684-.208 2.474-.915 3.99-1.56 1.494-.665 5.085-1.83 7.958-2.6 2.885-.77 5.575-1.622 5.986-1.872.41-.27 2.086-.665 3.728-.873 1.653-.208 3.169-.832 3.375-1.373.228-.624.501-.687.741-.125.65 1.456 1.619 1.352 1.653-.208.034-1.186.114-1.248.331-.208.421 1.893 1.219 2.538 2.143 1.664.662-.419 1.365-.582 2.064-.478.699.104 1.378.472 1.995 1.081 1.049 1.352 4.001 3.474 5.769 4.098.889.333 1.619.936 1.619 1.373 0 .416.672.79 1.482.79.832 0 1.505.374 1.505.832 0 1.144 4.834 3.432 9.121 4.306 1.972.416 4.48 1.04 5.586 1.393 2.873.978 10.124.77 10.751-.29.377-.646 1.209-.563 2.851.29 1.425.728 2.394.874 2.485.354.103-.52.604-.54 1.334-.063.841.452 1.736.452 2.577 0 .786-.436 4.788-1.372 8.893-2.1 4.104-.728 8.026-1.519 8.71-1.79a18.97 18.97 0 012.497-.748c.684-.146 2.36-.562 3.739-.957 1.368-.395 2.794-.624 3.158-.478.377.125 1.049-.042 1.494-.354.456-.332 2.577-.707 4.709-.832 2.143-.166 4.172-.665 4.503-1.164.354-.5 1.345-.625 2.337-.25.958.333 2.737.416 3.979.166 1.232-.25 3.181-.208 4.333.042 1.151.291 1.972.166 1.824-.229-.137-.416.65-.624 1.767-.5 1.117.126 2.041.5 2.041.833 0 .312 1.55.832 3.454 1.165 2.224.374 3.546.998 3.717 1.747.148.665.616 1.186 1.049 1.186.661 0 3.375 2.745 4.23 4.284 1.619 2.912 12.233 10.754 15.505 11.482l4.424.977c.958.209 1.516.084 1.254-.29-.285-.375-.502-1.415-.502-2.351 0-1.331-.376-1.664-1.904-1.768-1.162-.083-1.641.145-1.242.582.456.5.479.708.057.728-.331 0-.73-.374-.912-.852-.445-1.248-3.535-3.328-5.439-3.661-.912-.167-2.736-1.519-4.058-3.037-1.104-1.313-2.286-2.395-3.523-3.224-.605-.25-1.22-.998-1.369-1.664a2.224 2.224 0 00-.376-.838c-.164-.213-.357-.34-.558-.368-.365 0-1.106-.687-1.631-1.54-.957-1.497-3.534-3.494-7.445-5.74-2.28-1.31-18.184-2.226-21.901-1.249-1.3.333-2.565 1.144-2.805 1.79-.331.873-.445.914-.456.103 0-.832-1.094-.957-4.857-.52-2.668.312-5.244.915-5.735 1.331-.478.416-2.268.957-3.99 1.186-3.922.54-6.35 1.123-6.852 1.664-.228.208-2.269.624-4.56.853-2.281.25-5.838.832-7.89 1.269-2.052.478-4.332.645-5.073.416-.742-.23-1.448-.125-1.574.25-.137.353-1.55.56-3.147.436l-8.892-.54c-5.655-.333-6.955-.646-8.711-2.205-.41-.354-1.984-1.144-3.489-1.727-1.656-.694-3.262-1.734-4.788-3.1-1.14-1.102-2.166-1.809-2.314-1.56-.149.25-1.106-.145-2.121-.873-.944-.701-1.939-1.15-2.953-1.33-.593 0-1.322-.417-1.63-.937-.734-.753-1.554-1.18-2.395-1.248-.723-.047-1.439-.3-2.12-.749-.137-.229-.661-.041-1.174.416-.662.624-.935.583-.935-.125 0-.748-.171-.748-.707 0-.479.687-.798.728-1.026.125-.297-.832-3.831-1.31-4.287-.561zm-30.019 12.813c0 .665-.308.998-.707.728-.57-.396-.593-.604-.034-1.186.365-.416.684-.728.695-.728.023 0 .046.52.046 1.186zm-2.326.499c0 .457-.091.832-.228.832-.114 0-.342-.375-.513-.832-.171-.479-.08-.853.217-.853.285 0 .524.374.524.832v.02zm-2.246.832c-.16.499-.57.873-.901.852-.342 0-.285-.332.16-.831.958-1.061 1.129-1.061.752 0l-.011-.021zm234.429 1.518c-.957.208-2.029.749-2.371 1.248-.422.582-.832.582-1.254.02-.342-.477-1.049-.56-1.608-.165-.547.374-1.824.727-2.839.748-1.014.042-1.983.479-2.166.978-.182.5-.638.707-1.015.458-.763-.5-6.669 1.081-7.433 1.996-.951.515-1.939.76-2.93.728-1.334.084-2.691.52-3.01.957-.319.458-1.015.707-1.551.562-.836-.07-1.672.12-2.474.561-1.71.916-2.177.999-10.967 2.247-3.558.499-7.936.81-9.714.686-3.694-.229-4.96.458-4.72 2.62l.205 2.018c.046.666 12.883.313 16.475-.457 6.51-1.415 9.77-2.496 10.751-3.599.593-.665 2.098-1.102 3.489-1.019 1.345.104 3.568-.27 4.936-.81 2.508-.979 6.556-2.351 10.717-3.62a46.2 46.2 0 004.367-1.623c1.174-.499 4.674-1.04 7.81-1.143 5.632-.209 6.909-.708 5.951-2.35-.536-.916-7.753-1.603-10.649-1.04z" fill="#AE99FF"/></svg>