<svg width="266" height="30" fill="none" xmlns="http://www.w3.org/2000/svg"><path fill-rule="evenodd" clip-rule="evenodd" d="M252.67.572c0 .382-.159.682-.357.682-.199 0-.367-.232-.367-.546 0-.34-1.569-.504-4.367-.45-2.928.055-4.368.273-4.368.682 0 .327-.158.245-.337-.177-.238-.532-.477-.6-.814-.232-.268.286-1.628.6-3.037.682-1.39.095-2.62.313-2.73.504-.099.191-1.568.41-3.275.491-1.697.068-3.335.273-3.633.437-.297.163-1.449.381-2.551.477-1.091.095-2.491.286-3.096.409-1.707.382-4.546.9-6.71 1.227-1.092.164-2.104.41-2.243.546-.149.122-1.191.34-2.322.477a7.463 7.463 0 00-2.422.586c-.199.191-1.132.437-2.065.546-.943.136-2.114.368-2.61.545-.496.177-1.489.41-2.184.505-4.129.613-5.34.845-5.826 1.132-.298.177-.675.381-.824.436-.149.068-.307.177-.357.245-.05.069-.754.178-1.558.246-.794.082-2.442.327-3.643.559-1.191.232-2.829.477-3.633.545-2.61.205-6.153.846-6.511 1.187-.198.177-3.106.272-6.471.204-4.744-.082-6.124.055-6.124.573 0 .545-.069.545-.298 0-.297-.682-5.359-1.077-5.776-.45-.099.136-.566.054-1.042-.218-.556-.3-.943-.273-1.092.095-.169.382-.348.341-.536-.122-.228-.519-.417-.546-.804-.069-.338.41-.625.45-.874.082-.436-.627-1.617-.913-6.501-1.554a66.67 66.67 0 01-6.908-1.364c-1.806-.477-3.771-.955-4.367-1.077a45.606 45.606 0 01-5.28-1.296c-1.102-.327-2.978-.682-4.189-.79-.93-.047-1.854-.22-2.759-.519-.327-.19-.734-.286-.913-.218-.179.055-.735-.04-1.241-.232-.496-.19-1.647-.463-2.541-.6-.903-.136-3.116-.518-4.913-.818l-4.555-.805a5.956 5.956 0 01-1.271-.286c0-.409-2.253-.177-2.451.246-.179.381-.268.354-.278-.096 0-.45-.794-.654-2.641-.654-1.449 0-3.553-.191-4.664-.437-2.234-.477-7.385-.382-7.97.137-.209.19-.378.095-.378-.232 0-.355-.367-.423-.992-.191-.556.204-1.34.313-1.737.245-1.032-.19-.764-.19-8.367.164-7.166.327-7.643.395-10.372 1.254-.904.287-1.886.546-2.184.546-2.779.136-7.761 1.036-13.469 2.454-.496.137-2.034.491-3.424.819-1.38.327-2.809.818-3.176 1.118-.377.3-.685.34-.685.109 0-.232-.159-.055-.357.382-.258.586-.357.613-.357.095 0-.682-1.46-.709-1.827-.013-.099.177-1.091.477-2.183.64-2.124.314-8.913 2.25-9.38 2.66-.149.136-1.18.395-2.283.572-1.111.178-2.5.518-3.096.764-.596.245-1.28.34-1.529.218-.248-.136-.456.041-.456.368 0 .341-.17.464-.378.273-.208-.19-.575-.11-.823.177-.239.273-1.092.655-1.886.818-.804.15-2.035.505-2.73.764l-1.548.573-1.39.422c-.625.191-1.21.641-1.31 1.01-.099.409-.556.586-1.062.45-.844-.01-1.675.28-2.412.845-.833.586-1.856 1.077-2.273 1.091-.992 0-2.014 1.023-1.39 1.39.259.15.457.505.457.778 0 .314-.238.327-.635.027-.794-.586-2.461-.272-3.493.682-.427.382-1.261.86-1.847 1.064-.585.204-2.104 1.077-3.364 1.936C-.08 27.763-.228 27.967.189 28.95c.248.573.565 1.05.704 1.05.556 0 2.114-1.255 2.114-1.718 0-.26.17-.314.378-.136.208.19.625.054.913-.287.297-.354.526-.504.526-.327s.863-.177 1.915-.777a64.364 64.364 0 014.824-2.414l4.546-2.046c.893-.409 2.382-.9 3.275-1.09a19.437 19.437 0 003.097-1.05 18.255 18.255 0 012.799-1.023c1.102-.273 1.37-.6 1.489-1.787l.149-1.445.06 1.391.049 1.39 2.64-.722 5.558-1.554c1.588-.45 3.395-.914 4-1.037 1.568-.313 4.486-1.173 6.223-1.813 1.509-.56 3.434-1.05 5.42-1.364.595-.095 2.153-.464 3.454-.818 1.3-.355 2.61-.641 2.918-.641.297 0 2.421-.423 4.724-.955 3.88-.913 4.963-1.118 9.469-1.854l3.087-.518c1.836-.3 8.803-.914 11.513-1.01 1.47-.054 1.995-.272 1.866-.736-.1-.368.01-.668.238-.668.219 0 .397.205.397.45 0 .477.06.49 2.64.955 1.231.218 1.727.109 1.727-.355 0-.436.15-.477.457-.136.248.272 3.404.545 7.007.613 7.484.137 8.953.246 9.479.723.209.19.864.273 1.449.164.586-.082 1.439.04 1.886.3.467.245 1.618.572 2.561.709 2.67.409 9.885 1.772 16.833 3.177.496.095 1.886.436 3.097.764 4.714 1.24 6.908 1.54 7.365 1.022.307-.368.456-.34.456.069 0 .327.417.586.913.586.497 0 1.251.3 1.648.682.595.532.794.518 1.042-.068.179-.423.367-.505.447-.178.079.3.873.682 1.776.86l4.367.858c9.926 1.95 29.578 1.664 38.58-.545a52.769 52.769 0 014.179-.818c1.201-.177 3.176-.655 4.367-1.05a53.683 53.683 0 015.618-1.35 236.046 236.046 0 008.397-1.678c1.697-.34 3.176-.763 3.275-.927.099-.163.993-.327 2.005-.368.993-.04 3.782-.49 6.184-1.009 2.402-.518 4.655-.955 5.002-.982.347-.013.635-.327.635-.682.008-.2.047-.395.116-.572.068-.177.164-.33.281-.45.278-.246.338 0 .179.695-.218.996-.129 1.036 1.38.627.883-.231 3.305-.572 5.379-.736a163.87 163.87 0 005.955-.586c4.506-.6 8.655-.791 15.246-.71l2.878.041 1.36-2.318c.754-1.254 1.34-2.345 1.29-2.413-.208-.341-5.36-.45-5.508-.11-.1.232-.576.314-1.072.178-.497-.137-2.204-.3-3.812-.382-2.203-.123-2.928.014-2.928.545V.572zm-109.864 12c-.357.532-.397.477-.198-.287.129-.531.337-.818.446-.654.12.163 0 .586-.248.954v-.013z" fill="#FFD338"/></svg>