<svg version="1.0" xmlns="http://www.w3.org/2000/svg" width="1200" height="1200" viewBox="0 0 900 900"><path d="M364.1 44.1c-11.9 2-25.1 11.1-30.6 21-2.7 4.8-3 6.2-2.9 13.4.1 4.7 1.4 13.6 3.2 21.5 2.8 12.5 5.4 22.3 16.2 61 2.2 8 4.9 18.8 5.9 24 1.1 5.2 4.9 23.4 8.6 40.3 8 37.8 12 58.4 13.5 70.2 2.4 18.9 8 43.6 17.1 75.4 2.7 9.5 4.9 17.7 4.7 18.2-.3.9-9.2-2.6-25.7-10.1-9-4.1-9.7-4.2-17-3.7-4.2.2-11.2 1.6-15.6 3-7.6 2.5-8.2 2.6-12.3 1.1-6.4-2.1-17.5-2.8-27.6-1.5-31.7 3.9-46.9 19.6-47.1 48.6v10h-11c-9.9 0-11.5.3-16.5 2.7-7.2 3.5-20.9 14.9-23.8 19.7-5.4 9-6.5 27.4-2.7 45.6 2.6 12.5 5.5 17.9 14.4 26.5l7.8 7.5.6 21c1.3 43.1 2.7 74.1 3.6 78.5.6 2.5 2.6 21.6 4.6 42.5 7.2 77.3 8.7 85.1 23.7 122.5 13.2 32.9 27 58.4 38.3 70.5 4.4 4.8 4.7 5.3 6.1 14.5.7 5.2 1.4 10.1 1.4 10.7 0 .9 2.1 1.3 7 1.3 8 0 7.9.1 6-10-.5-2.9-.8-5.5-.6-5.9.3-.4 6 .2 12.8 1.2 16.9 2.6 50.2 2.8 64.2.4 15.2-2.7 32-8.9 35.6-13.3 1.1-1.2 0-.9-3.8 1-10.4 5.3-20.7 7-41.2 7-15.5 0-21-.4-34-2.7-13.7-2.3-30.7-6.6-38-9.5-10.3-4-31.2-42.7-47.6-87.9-7.5-20.8-9.9-36.1-15.9-101.1-2-21.1-4-40.7-4.6-43.5-1-5.3-1.5-14.4-2.4-43.4l-.4-16.1 7.2-.6c4-.3 11.5-.8 16.7-1.1l9.5-.6 13.9 10.5c19.1 14.3 22.4 16.1 30.6 16.1 16.5-.1 29.4-10.7 32.9-27.3.6-2.9 1.1-6.5 1.1-8.1 0-3.9-7.5-18.7-15.9-31.4-3.9-5.9-6.9-10.7-6.6-10.7.2 0 3.4 3.7 7.1 8.2 10.2 12.8 20.7 24.1 25.4 27.3 4 2.8 4.9 3 13.4 2.9 21.1-.2 32.5-11 33.4-31.9l.4-9 8.2 2.6c4.4 1.5 12 3.5 16.9 4.5 4.8 1 8.7 2.1 8.7 2.5 0 3.7-26.6 32-41 43.5-29.7 23.8-61.4 41-92.8 50.3-11.5 3.4-32.1 7.1-39.8 7.1-2.9 0-5.6.5-6 1.2-.5.8 2 .9 10.2.4 50.6-3.2 98.8-23.1 146.5-60.6 10.9-8.5 27.5-25.2 33.4-33.4 2.7-3.8 5.4-6.6 6.4-6.6 3 0 12.4 7.5 17.4 13.8 2.6 3.3 4.7 6.4 4.7 6.9 0 .4-3.4 2.6-7.6 4.7-21.5 11-45.6 28.8-64 47.1-13.5 13.5-20.9 22.6-28.9 35.9-8.7 14.2-16.4 34.5-17.9 47.1-.6 4.3-.3 3.8 1.9-3.4 9.4-30.8 27.4-56.4 56-79.4 13.9-11.2 41.1-28.6 44.8-28.7.5 0-1.9 3-5.3 6.7-16.4 18.1-33 49.4-41.4 78.1-6.8 23.1-9.7 48.2-7.8 66.6 1.9 17.5 8 37.2 13.6 44.1 1 1.2.8.1-.7-3-6.8-14.1-9.2-26.4-9.1-46.5.1-17.4 1.3-26.8 5.9-43.7 11.7-43.6 40.5-87.7 66.6-102.2l6.2-3.5 1.6 2.4c.9 1.3 3.2 4.6 5.2 7.3 3.3 4.4 3.7 5.6 4.3 13.7.4 4.8 1.3 9.5 1.9 10.3 3.2 3.9 59.2 43.9 67.5 48.1 4.9 2.5 3.8 1.1-2.5-3.3-7.2-4.8-22.3-17.4-42.6-35.5-14.4-12.7-15.7-14.1-15.7-17.2 0-2.2.5-3.4 1.3-3.4s6.9 2.1 13.8 4.6c22.1 8.1 56.8 20.4 57.6 20.4.5-.1-7.4-4.1-17.4-9-10.1-4.8-25.3-13-33.8-18-17.6-10.4-20.2-13.1-31.5-32-12.9-21.7-24.2-35-33.7-39.9-5.4-2.7-14-5.1-18.4-5.1-12.5 0-33.3-6.1-52.4-15.4-30.6-15-50.8-33.1-62.9-56.6-5.9-11.4-8.6-20.6-8.7-29.6-.1-10.6 3.7-18.2 9.9-19.7 1.9-.4 2.2-.2 1.7 1.1-1.4 3.5-1.7 11.8-.6 15.9 3.6 13.2 31.3 30.4 55.3 34.3 15.2 2.4 25.9-6.9 28.3-24.5.3-2.8.8-6.2 1.1-7.6l.5-2.7 7.7 2.6c16 5.1 43.1 13.1 54.4 15.8 6.5 1.6 11.8 3.4 11.8 4 0 .6-1 1.9-2.1 3-2.2 2-7.9 11.2-7.9 12.9 0 .5 1.2-.8 2.6-3 4-6 11.6-13.5 13.7-13.5 7.4 0 26.2 18.7 30.2 30 .9 2.5 2.3 5.5 3.1 6.8 1.4 2.1 1.4 2.7-.4 6-1 2-4.1 5.2-6.8 7.1-4.2 2.9-4.5 3.3-2 2.7 3.6-.9 8.3-4 11.3-7.4l2.1-2.5 13.2 13.6c13.7 14.2 41.8 40.6 58 54.7 10.4 8.9 23.3 22.5 26.7 28.1 1.2 1.9 2.9 6 3.7 9.1 2.2 8.4 1.3 17.6-8.9 89.8-8.1 57.2-8.3 59-9.5 73.5-.6 7.4-2 15.6-3.5 21-6.2 21.3-20.2 54.4-33.3 78.3-6.1 11.3-7.2 12.7-12.2 15.8-21 13.2-55.8 10.5-90.5-6.8-10.1-5.1-23.9-13.6-30.8-19-2.1-1.7-4-2.8-4.3-2.6-.8.9 16.8 14.9 27.6 22.1 17.7 11.6 37.3 20 54.7 23.3 8.8 1.6 30.5 1.6 36.1-.2l2.4-.7-.7 7.6c-.4 4.2-.4 9.7-.1 12.2l.7 4.5h14.1l-.7-6.8c-1.1-11.6.5-17.8 7.5-28.4 12.5-18.9 31.1-59.2 39.8-85.9 4.4-13.5 6.4-24.1 8.2-43.4.7-6.6 4.5-35.4 8.5-64 8.9-63.1 9.8-71.4 9.3-84.7-.3-9.7-.6-11.1-4-18-2.2-4.3-6.3-10.3-9.9-14.2l-6.2-6.7.6-16.7c.8-22.1 6.3-75.5 9.1-88.7.8-3.9 5.4-23.7 10.1-44 16.9-72.4 18.6-80.8 20.5-101.5 3.2-34.5 11.7-103.7 19-155.1 2.8-19.1 5-37.4 5-40.7 0-23.3-13.5-40.4-34.8-44.4-11.6-2.2-25.2 1.7-34 9.7-6.4 5.7-9 11.9-12.7 29.8-1.9 8.9-5.7 26.3-8.5 38.7-8 35.1-12.9 58.3-14.1 66.7-1.5 10.6-5.1 22.5-25.8 85.3-16.8 51.1-23.1 70.9-24.5 77.1-2 9.1-18.3 16.4-34.9 15.7l-7.2-.3-2.3-8c-1.2-4.3-4.1-19-6.3-32.5-2.4-14.8-6.8-35.6-11-52.5-12.4-49.7-18.9-70.8-25.5-83.5-3.5-6.5-5.8-15-14.9-54.5-10.3-44.7-27.5-81.7-43.7-94.6-7-5.5-11.8-7.8-19.7-9.5-7.4-1.5-8.3-1.5-16-.3zm19.7 16c6.1 2.6 15 11.9 20.5 21.4 9.1 15.5 18.8 41.5 24.8 66.9l2.3 9.8-2.9 2.5c-4.2 3.5-15.9 8.9-23 10.8-6.7 1.7-17.4 2-22.3.6-1.9-.6-3-.6-2.7 0 .7 1.1 9.3 3.6 15.5 4.4 6.2.9 18.6-1 27.3-4 4-1.4 7.9-2.8 8.8-3.1 1.3-.5 2.2 2 5.3 14.8 2.7 11 5.1 18.1 8.6 25.3 5.8 12.2 9.8 24.3 16.9 51.3l2.9 11.2-3.1 2.4c-4.2 3.1-10.8 6.4-17.5 8.7-7.1 2.5-25.1 5.9-30.8 5.9-2.4 0-4.4.4-4.4 1 0 1.5 22 1.2 33.1-.5 5.2-.7 12.6-2.6 16.5-4 3.8-1.4 7.3-2.7 7.8-2.8 1.6-.4 8.7 29.8 13.6 58.3 2.7 15.7 5.8 31.4 6.9 35 1.2 3.6 2.1 7 2.1 7.6 0 1.1-22.1 12.9-31.7 16.9-10.3 4.3-1.8 2.9 18.9-3.1 17-4.9 19.7-5.4 22.9-4.5 9.4 2.8 30.2 0 40.9-5.4l5-2.5 4.1 2c8.6 4.4 41.8 17.3 54.3 21.1 15.2 4.5 22.1 5.2 9.9.9-9.9-3.5-29-12.5-45.6-21.6-15.9-8.7-15.1-8-12.8-11.8 1-1.7 3-7.4 4.5-12.6 2.6-9.3 21.5-68 21.9-68 .1 0 4.5 1.5 9.7 3.4 12.5 4.4 25.7 6.6 39.4 6.5l11.1-.1-10.8-1.8c-6-1-14.5-3-19-4.5-9.3-3.1-25.6-11.2-26.4-13.1-.2-.7 2.7-10.9 6.6-22.8 11.5-34.9 15-47.5 16.7-58.6.9-5.8 2-11 2.5-11.6.7-.9 2.3-.9 6.1.1 8.7 2.3 23.5 3.8 33.2 3.3 12.2-.7 15.6-2.4 4.9-2.5-4.3 0-10.9-.8-14.8-1.8-7.2-1.7-25.4-8.1-26.8-9.5-.4-.4 3-17.5 7.7-38.1 4.6-20.6 9.4-42.3 10.5-48.2 1.2-5.9 2.8-12.1 3.5-13.6 5.3-10.2 21-14.7 33.2-9.6 5.1 2.1 11 8.1 13.4 13.8 3.9 9 3.7 15.5-1.9 54.2-6.3 43.9-14.2 107.2-18 145-3.1 29.7-4.3 36.8-14.1 79-18.8 81.2-19 82.3-21 101.2-3.3 30.3-4.8 46.1-5.6 57.5-.4 6-.9 10.8-1.3 10.8-1.5 0-29.6-26.3-50.7-47.4-20.5-20.5-23.3-23.7-24.8-28.3-2.3-7.1-9.9-17.4-18.7-25.8-9.4-8.8-15.5-12.2-24.9-13.5-13.2-1.9-37-8.5-72.7-20.2l-12.3-4-3.9-12.6c-10.3-32.8-17.7-63.7-21.1-87.7-4.1-30-22.6-116.4-32.4-151-13.2-47.3-16.7-63.7-14.6-69.9 1.3-4.1 8.7-11.1 13.7-13.3 8.6-3.5 17-3.6 25.1-.2zm-10.7 333.8c5.7 2.7 13.8 6.1 17.9 7.5l7.6 2.7-.4 6.4c-.5 8.3 1.1 12.9 6.4 18.1 2.6 2.4 4.2 4.8 3.9 5.6-1.1 2.9-6.8 5.2-12.5 5.1-16.6-.3-48.5-18.1-52-28.9-2.5-7.5 1.8-19.6 7.2-20.7 7.6-1.4 11.6-.7 21.9 4.2zm-56.6-1.2c-4.8 11-5.9 23.9-3 35.8 5.2 21.9 22.7 47.4 43.9 64.1l3.9 3-4.6 2.7c-7.6 4.5-13.9 13.7-14.1 20.8-.2 8.6 13.9 28 22.9 31.5 6.6 2.5 15.1 1.4 23.7-3 5.4-2.7 6.6-3 5.8-1.5-2.8 5.1-18 10-26.5 8.5-3.3-.6-5.5-2.3-12-8.9-12.5-12.7-35.4-42.1-70.4-90.1-19.7-27.1-19.1-25.8-17-37.1 2.2-11.7 8.3-19.6 18.1-23.1 6.6-2.4 16.6-4.2 23.7-4.3 5.7-.1 6.2.1 5.6 1.6zm95.3 15c1.9.8 3.2 2 3.2 3.1-.1 2.7-2.8 17.3-3.4 17.9-1.1 1.1-6.6-4-8.5-8-2.3-4.7-2.7-9.1-1.1-13.2 1.1-2.8 2.7-2.7 9.8.2zM261 455.1c10.8 5.2 12.3 6.6 28.4 27.9 19.8 26.1 38.9 53.8 48.2 70 4.5 7.7 4.9 9 4.8 14.5-.2 11.6-7.9 21.9-19 25.1-8.4 2.4-12.1 1.5-21.3-5.1-21.1-15.2-81.4-68.4-84.7-74.6-4.1-8-6.4-36.1-3.6-44 1.2-3.5 6-8.2 14.2-13.9 6-4.3 8.2-4.9 16-4.7 6.6.2 8.7.8 17 4.8zm108.7 46c1.9 1.2 3.2 2.6 3 3.3-.5 1.8-10.1 6.5-14.9 7.4-2.3.5-5.4.6-6.7.2l-2.5-.6 3.9-4.2c3.8-4.2 9.6-8.1 12.4-8.2.7 0 2.9.9 4.8 2.1zm12.8 7.5c7.2 4 10.5 7.9 13.1 15.7 2.5 7.5 1.4 12.4-3.5 16.8-7.2 6.5-18.7 8.6-26.8 5-4.9-2.3-11.9-10.7-16.4-19.8-2.8-5.5-3-6.5-1.9-9.7 1.1-3.3 1.2-3.4 4.1-2.4 6.6 2.3 20.1-2 22.9-7.2.6-1.1 1.3-2 1.5-2 .2 0 3.4 1.6 7 3.6zm16.5 10.2c0 1.5-.2 1.5-1 .2-1.3-2-1.3-3.3 0-2.5.6.3 1 1.4 1 2.3zm-151.2 35.4c5.4 4.6 11 9.3 12.6 10.6 1.6 1.2 2.7 2.4 2.5 2.6-.2.2-6.1.6-13.1.9l-12.8.7v-11.5c0-6.3.3-11.5.6-11.5s4.9 3.7 10.2 8.2z"/><path d="M301.8 531.6c-6.6 2-13.9 9.3-16.6 16.6-3.4 9.1-3.8 14.7-1.3 19.6 4.2 8.3 19.6 20.9 28.3 23.2 11.8 3.2 27-10.5 27.2-24.6.1-7.4-5.5-18.3-13.8-26.8-9.1-9.5-13.9-11.1-23.8-8zm6.2 4.1c0 6.7-5 14.6-10.7 16.9-4.5 1.9-9.3 1.8-9.3-.1 0-5.3 8.3-14.7 15.1-17.1 4.6-1.7 4.9-1.7 4.9.3zm6.9-.3c7.2 3.8 19 20.3 20.6 28.7 1.5 7.9-7.4 20.3-16.4 23-3.8 1.1-4.5 1-10.4-1.9-7.9-3.9-18.7-13.7-21.1-19.1-1.2-2.6-1.6-5.1-1.2-7.3l.6-3.3h6.4c5 0 7.1-.5 9.3-2.1 4.4-3.3 6.7-8.1 6.7-14.1 0-5.8.7-6.3 5.5-3.9zM484.1 877c-.1.8.6 6.3 1.6 12.3 1.1 7.3 2.1 10.7 3 10.7.7 0 1.3-.6 1.3-1.3-.1-2.1-5.8-23.3-5.9-21.7z"/></svg>