<svg width="15" height="16" fill="none" xmlns="http://www.w3.org/2000/svg"><path d="M13.26 12.45l-2.7-.59c.21-.15.44-.47.44-.87 0-.46-.24-.72-.43-.86.25-.2.6-.54.6-1.17 0-.67-.46-1.02-.7-1.18.19-.18.46-.54.46-1.04 0-.88-.68-1.28-1.23-1.5a7 7 0 00-2.03-.22c-1.21 0-2.31.09-2.84.09-.62 0-.54-.32-.32-.62.15-.16 1.92-2.5 2.25-2.92.23-.3.5-.6.7-.49.22.12.13.66-.1 1.24-.34.92-.83 1.51-.94 1.71l.82.5c.31-.4 1.35-2.12 1.35-3.23 0-.5-.2-.92-.56-1.15-.37-.21-.85-.2-1.27.05-.28.17-.56.41-.8.72l-2.5 3.17c-.7.93-.38 2.08 1.14 2.08.54 0 2.29-.13 2.97-.13.78 0 1.16.04 1.43.08.5.07.8.3.8.6 0 .23-.1.38-.28.5-.18.13-.34.33-.34.6 0 .31.29.44.48.57.26.17.41.28.41.55 0 .24-.18.38-.38.53-.17.13-.39.27-.39.57 0 .26.2.4.32.5.13.1.27.21.27.43s-.1.32-.36.47c-.2.12-.5.33-.5.64 0 .34.25.5.54.57.7.17 2.8.62 3.51.78.23.05.46.13.46.32 0 .2-.3.28-.74.28-1.5 0-5.7-.3-8.16-1.16-1.67-.56-2.59-1.6-2.59-2.83 0-1.08.72-2.03 1.5-2.58l-.7-.72a4.17 4.17 0 00-1.9 3.32c0 1.5.9 3.04 3.36 3.87 2.62.88 6.59 1.15 8.44 1.15 1.27 0 1.88-.52 1.88-1.31-.01-.76-.63-1.17-1.37-1.32z" fill="#222"/></svg>