<svg width="592" height="31" fill="none" xmlns="http://www.w3.org/2000/svg"><path fill-rule="evenodd" clip-rule="evenodd" d="M236.542.145c-.159.126-2.294.223-4.759.223-2.454 0-4.674.261-4.932.58-.245.32-1.275.582-2.281.582-.994 0-2.049.184-2.331.407-.294.222-2.613.494-5.152.6-4.49.194-20.952 2.867-22.62 3.68-.859.407-1.632.562-8.378 1.608-2.159.33-4.318.852-4.809 1.162-.491.31-2.502.697-4.49.872-1.975.184-7.213.968-11.616 1.762a94.018 94.018 0 01-17.419 1.472l-9.385.039-2.232-2.14c-6.06-5.811-6.011-5.801-12.844-5.666-3.41.068-7.482.359-9.016.64-1.545.27-4.6.639-6.796.803-2.195.175-4.084.552-4.219.843-.123.29-1.571.436-3.227.31-1.815-.126-4.502.29-6.808 1.065-2.085.707-4.318 1.133-4.931.94-.613-.185-1.35-.03-1.644.338-.294.368-1.926.678-3.643.678-1.717 0-3.324.271-3.607.62-.27.349-1.373.63-2.453.63-1.067 0-1.963.222-1.963.484 0 .28-.736.542-1.656.6-3.434.194-13.739 2.925-14.131 3.739-.27.552-.736.648-1.325.261-.797-.513-9.838 1.501-16.143 3.593-2.907.968-7.176 2.101-9.213 2.44-1.104.184-2.392.582-2.87.872-.478.29-1.558.63-2.404.756-.859.125-2.257.455-3.14.726l-4.208 1.317c-1.435.455-2.613 1.055-2.613 1.346 0 .29-2.036.513-4.539.494-2.944 0-4.661.261-4.87.775-.417.968-1.889 1.046-1.607.077.11-.387-.49-.794-1.349-.9a81.13 81.13 0 01-3.508-.581c-1.632-.33-1.767-.252-.822.426C3.067 30.4 5.446 31 10.034 31c4.723 0 9.151-.997 8.44-1.908-.209-.261.16-.63.822-.833.662-.193 1.202-.067 1.202.29 0 .36.441.427.981.165a7.225 7.225 0 012.282-.552c.711-.038 4.637-.89 8.71-1.888 5.691-1.395 7.593-2.13 8.096-3.196.944-1.927 1.938-2.237 4.367-1.366 1.692.601 2.257.582 2.76-.048.343-.445.858-.775 1.14-.746 2.478.252 5.398-.096 6.269-.755.589-.436 2.085-.862 3.336-.94a11.461 11.461 0 003.178-.561c.49-.242 1.741-.504 2.784-.59 1.043-.098 2.392-.485 2.98-.872.614-.388 2.184-.814 3.522-.94a90.347 90.347 0 0010.512-2.034 19.205 19.205 0 012.405-.484c.662-.097 4.624-.775 8.807-1.51 14.107-2.48 18.805-3.08 27.478-3.526 7.667-.397 8.808-.33 10.218.678.871.61 1.595 1.492 1.595 1.937 0 .465 1.067 1.278 2.392 1.811 1.325.533 2.404 1.23 2.404 1.55 0 .978 6.048 1.937 11.2 1.781 2.674-.077 4.845-.435 4.845-.803 0-.359.332-.262.712.222.589.727 1.595.737 6.207.068a54.264 54.264 0 006.698-1.259 28.116 28.116 0 014.943-.871c2.061-.223 5.054-.824 6.649-1.356 1.595-.514 3.189-.804 3.533-.64.858.417 6.538-.968 6.133-1.481-.171-.223 1.018-.426 2.638-.455 2.735-.039 4.919-.368 14.573-2.199a283.091 283.091 0 0117.038-2.837c2.392-.262 3.006-.6 3.03-1.676.013-1.084.16-1.162.736-.387.516.688 1.902.93 4.981.852l9.887-.252c5.618-.145 11.666.456 12.426 1.23.859.901 6.502 3.971 9.384 5.123 3.717 1.482 19.48 2.373 23.344 1.317 1.595-.435 2.539-.455 2.699-.048.172.388 1.644.271 3.864-.29 1.987-.514 5.545-.833 7.973-.727 2.417.117 4.76.02 5.214-.193.454-.233 2.085-.436 3.631-.456 6.342-.087 9.274-.348 10.427-.949 3.398-1.782-6.134-3.321-11.715-1.888-1.276.33-4.551.726-7.274.871-5.275.3-6.98.775-6.232 1.705.245.33.074.581-.392.581-.467 0-.859-.416-.859-.93 0-.997-1.227-1.288-1.889-.455-.712.9-21.271.194-26.043-.89-4.183-.96-10.586-3.681-11.2-4.785-.76-1.337-5.667-2.48-11.126-2.576-3.25-.068-6.047-.01-6.207.106v.01zm152.355 4.339c-.086.068-5.741.29-12.549.474-6.82.194-12.757.388-13.199.436a10.016 10.016 0 01-2.601-.358c-1.214-.3-1.803-.194-1.803.32 0 .425-.233.59-.503.377-.282-.213-1.19-.116-2.012.232-1.006.427-1.496.417-1.496-.019 0-.94-6.195-.813-6.686.126-.319.63-.417.63-.466 0-.037-.426-.957-.775-2.061-.775-2.244 0-2.367.194-1.177 1.918.809 1.191 4.305 1.695 5.066.736.208-.262 4.416-.223 9.347.097 6.367.406 9.115.368 9.507-.117.344-.445.957-.484 1.718-.106 1.422.697 3.434.794 2.907.135-.589-.765 31.011-.338 36.114.485 4.121.658 11.113 2.837 17.112 5.326 3.692 1.54 13.579 3.36 13.579 2.518 0-1.288-2.649-2.712-5.606-3.012a34.02 34.02 0 01-7.016-1.937c-2.307-.92-6.023-2.372-8.256-3.244-5.753-2.247-13.616-3.535-22.264-3.651-2.547-.07-5.097-.057-7.643.039h-.012zm-60.255 1.278c.429.872.344.94-.466.31-1.386-1.065-3.091-.978-3.091.165 0 .513-.528.939-1.166.939-.625 0-1.361.262-1.619.59-.638.814 17.223.64 18.928-.183.736-.349 1.141-1.007.92-1.453-.503-1.036-4.796-1.104-5.226-.097-.233.533-.883.446-2.257-.31-1.275-.638-2.737-1.004-4.244-1.065-1.865 0-2.208.213-1.779 1.104zm-7.728.581c.589.194 1.276.165 1.546-.048.257-.204-.209-.349-1.055-.33-.933.03-1.117.184-.491.388v-.01zM521.061 9.52c-2.209.077-7.434.465-11.629.871-4.183.388-8.698.785-10.023.872-1.312.097-5.826.62-10.009 1.162-4.196.533-8.882 1.104-10.427 1.26-1.546.164-5.655.619-9.139 1.026-3.925.455-10.55.58-17.431.358-8.624-.29-11.102-.194-11.102.407 0 .435 1.104 1.278 2.454 1.879 2.122.939 4.097 1.045 14.879.794 6.845-.165 12.844-.485 13.334-.727.491-.242 2.895-.532 5.349-.649 2.453-.116 9.151-.755 14.88-1.413l16.842-1.928c8.648-.968 28.349-1.249 35.255-.484 3.824.46 7.615 1.074 11.359 1.84 3.153.659 6.759 1.327 8.01 1.462 1.252.146 3.533.562 5.079.92 3.386.804 9.605.853 11.138.097.883-.445.785-.687-.552-1.249-.907-.378-2.22-.513-2.919-.31-.699.213-2.392.03-3.742-.416-2.048-.659-2.576-.65-3.189.097-.466.552-.957.648-1.337.251-1.141-1.2-8.403-3.447-11.102-3.447-1.104 0-2.76-.31-3.655-.678-.896-.388-2.944-.775-4.564-.872a99.253 99.253 0 01-5.716-.571c-3.275-.446-16.241-.775-22.043-.552zm62.107 7.011c0 .29.552.707 1.214.901.663.194 1.202.116 1.202-.174 0-.3-.539-.707-1.202-.91-.662-.194-1.214-.117-1.214.183zm6.072.61c-.969.291-1.227.64-.675.901 1.055.504 3.435-.116 3.435-.9 0-.66-.613-.66-2.76 0z" fill="#EEE"/></svg>